<svg xmlns="http://www.w3.org/2000/svg" xmlns:xlink="http://www.w3.org/1999/xlink" width="220" height="270" viewBox="0 0 220 270">
  <defs>
    <clipPath id="clip-path">
      <rect id="長方形_24735" data-name="長方形 24735" width="220" height="270" transform="translate(258.217 1591.793)" fill="#fff" stroke="#707070" stroke-width="1"/>
    </clipPath>
    <clipPath id="clip-path-2">
      <path id="パス_18943" data-name="パス 18943" d="M411.64,390.43a48.855,48.855,0,0,1,21.8,4.993c3.518,1.94,10.195,6.94,10.187,11.441-.008,3.96-4,8.56-11.422,11.075-4.768,1.616-20.023,3.975-29.448,1.486,2.683-10.259,10.092-19.829,8.884-28.991Z" transform="translate(-402.76 -390.412)" fill="none"/>
    </clipPath>
    <clipPath id="clip-path-3">
      <path id="パス_18953" data-name="パス 18953" d="M171.869,272.729c-50.626,19.577-82.49-4.4-97.281-42.455-14.806-38.1,4.63-81.2,43.37-96.26,38.758-15.069,82.159,3.605,96.965,41.7C229.714,213.768,222.012,253.339,171.869,272.729Z" transform="translate(-69.624 -128.795)" fill="none"/>
    </clipPath>
    <clipPath id="clip-path-5">
      <path id="パス_18957" data-name="パス 18957" d="M44.246,353.316c-1.635.442-3.369.537-7.18.05-6.8-.873-8.327-1.284-13.846-2.107a6.786,6.786,0,0,0-7.756,7.828c1.109,5.412,5.591,11.624,11.81,15.919,12.5,8.624,23.388,8.407,27.805,7.931-.507-.823-1.006-1.65-1.494-2.5a80.493,80.493,0,0,1-9.337-27.123Z" transform="translate(-15.357 -351.17)" fill="none"/>
    </clipPath>
    <clipPath id="clip-path-6">
      <path id="パス_18958" data-name="パス 18958" d="M434.78,257.5c-5.217,2.161-16.407,3.971-21.658,4.836-2.5-9.775-8.285-19.974-14.932-28.015a.514.514,0,0,1,.076,0c10.446-1.14,26.285,1.6,30.748,2.9,5.995,1.749,14.932,5.5,15.37,10s-4.52,8.171-9.608,10.278Z" transform="translate(-398.19 -234.049)" fill="none"/>
    </clipPath>
  </defs>
  <g id="マスクグループ_263" data-name="マスクグループ 263" transform="translate(-258.217 -1591.793)" clip-path="url(#clip-path)">
    <g id="Layer_1" data-name="Layer 1" transform="translate(261.112 1592.752)">
      <g id="グループ_12036" data-name="グループ 12036" transform="translate(0 0)">
        <g id="グループ_12023" data-name="グループ 12023" transform="translate(0 56.715)">
          <g id="グループ_12021" data-name="グループ 12021" transform="translate(0.035 0.097)">
            <path id="パス_18933" data-name="パス 18933" d="M239.455,511.093q-4.5,4.493-9.261,8.724-1.12.995-2.256,1.974c-.377.324-.755.648-1.132.968-.187.16-.377.32-.568.48l-.377.32c.271-.229.278-.232.019-.015q-2.35,1.955-4.752,3.842a186.173,186.173,0,0,1-18.979,13.11c-.7.419-1.4.835-2.107,1.243-.381.221-.762.442-1.147.659-.191.107-.381.217-.572.324-.309.175-.255.145.164-.091-.126.072-.255.141-.381.214q-2.355,1.309-4.752,2.531-4.608,2.35-9.379,4.36-2.2.921-4.421,1.753c-.366.137-.728.271-1.1.4-.221.08-.911.309.133-.046-.183.061-.362.13-.545.19q-1.172.406-2.348.789c-2.9.938-5.835,1.753-8.807,2.409q-1.109.246-2.226.461c-.171.034-.339.061-.511.1,1.189-.236.32-.057.053-.012q-.589.1-1.178.194-2.292.366-4.611.579c-1.543.141-2.961.214-4.447.252-.617.015.838,0,.225,0h-.617c-.358,0-.713,0-1.071-.015-.705-.015-1.406-.046-2.108-.091a5.106,5.106,0,0,0-3.933,1.387c-.659.758-.964,1.982.13,2.557a107.037,107.037,0,0,0,50.382,12.218,113.024,113.024,0,0,0,26.594-3.388,106.2,106.2,0,0,0,24.673-9.638,112.029,112.029,0,0,0,22.451-16.14A107.355,107.355,0,0,0,288.2,522.549a105.246,105.246,0,0,0,11.09-23.77,102.583,102.583,0,0,0,4.829-25.05,107.253,107.253,0,0,0-1.38-25.759,103.853,103.853,0,0,0-7.557-24.524c-.915-2.031-1.906-4.028-2.938-6-.267-.511-1.364-.758-1.841-.785a5.572,5.572,0,0,0-2.176.328c-1.242.442-2.439,1.292-2.348,2.729.019.3.034.6.05.9-.034-.636.011.335.015.5.015.663.023,1.33.015,1.993q-.023,1.972-.175,3.941a72.785,72.785,0,0,1-1.132,8.266c-.572,2.934-1.3,5.838-2.157,8.7-.45,1.505-.938,3-1.452,4.489-.126.362-.255.728-.385,1.09-.027.072-.252.682-.057.164-.069.183-.133.366-.2.549q-.446,1.195-.918,2.386a143.013,143.013,0,0,1-9.093,18.621q-2.818,4.887-5.96,9.577-1.618,2.424-3.312,4.794-.823,1.155-1.665,2.3c-.282.385-.568.766-.854,1.147-.145.19-.286.381-.431.572.332-.442-.259.339-.316.412a210.1,210.1,0,0,1-18.4,20.98,1.605,1.605,0,0,0,.755,2.82,5.091,5.091,0,0,0,4.684-1.254,211.943,211.943,0,0,0,16.776-18.884,189.878,189.878,0,0,0,13.628-19.688,147.485,147.485,0,0,0,9.653-18.979,108.525,108.525,0,0,0,5.968-18.48,67.244,67.244,0,0,0,1.692-16.4c-.023-.762-.057-1.528-.1-2.291l-6.364,2.275c-.172-.324.179.351.217.427.11.217.221.431.328.648.248.5.492.991.732,1.49q.7,1.446,1.349,2.912,1.3,2.921,2.416,5.919a104.076,104.076,0,0,1,5.842,24.376q.36,3.127.53,6.273l.034.709c0,.053.023.476.011.225-.011-.229,0,.107,0,.126.019.541.038,1.082.049,1.624q.034,1.572.027,3.148a104.164,104.164,0,0,1-3.194,24.856q-.778,3.07-1.746,6.094-.469,1.464-.983,2.916c-.091.259-.183.514-.278.774.152-.419-.065.175-.114.3-.191.514-.389,1.025-.587,1.536a102.84,102.84,0,0,1-5.355,11.54,104.135,104.135,0,0,1-6.913,11.033c-.29.4-.579.8-.876,1.2-.168.229-.339.454-.511.682.339-.45-.126.16-.236.305q-1.046,1.355-2.13,2.679-2.092,2.544-4.345,4.95c-1.5,1.6-3.133,3.247-4.771,4.794q-1.223,1.155-2.481,2.264c-.377.331-.758.663-1.14.991-.217.187-.438.374-.655.556-.053.046-.339.282-.034.031.347-.29-.13.107-.2.168a103.086,103.086,0,0,1-10.648,7.714c-.888.56-1.78,1.105-2.683,1.639-.45.267-.9.526-1.357.785-.122.069-.244.137-.362.206-.316.179.293-.164.282-.156-.278.145-.549.3-.823.453q-2.824,1.543-5.743,2.9c-1.944.907-3.83,1.715-5.781,2.485-.48.187-.957.374-1.441.556l-.77.286c-.172.061-1,.358-.438.16.6-.213-.328.114-.442.152-.225.08-.454.156-.678.232-.518.175-1.037.347-1.559.515a103.641,103.641,0,0,1-12.26,3.137c-.141.027-.968.179-.351.068.587-.107-.191.034-.351.061-.534.1-1.071.183-1.6.271-1.037.164-2.077.316-3.121.45-2.081.267-4.173.473-6.265.614-1.048.073-2.092.126-3.144.164-.473.019-.945.03-1.422.042-.271.008-.541,0-.812.015.061,0,.793-.008.236,0h-.408c-2.1.011-4.2-.038-6.288-.153s-4.188-.289-6.273-.529c-1.01-.115-2.016-.248-3.022-.393q-.755-.109-1.509-.229c-.267-.042-.537-.088-.8-.133-.1-.015-.2-.034-.3-.049-.675-.114.446.08.053.011a106.866,106.866,0,0,1-12.192-2.938q-3.041-.932-6.018-2.046-1.492-.56-2.969-1.166l-.667-.274c-.45-.187-.023-.011.057.023-.126-.053-.252-.107-.381-.164-.507-.217-1.01-.438-1.513-.667q-2.835-1.275-5.591-2.717l-3.8,3.944a70.348,70.348,0,0,0,17.58-1.326,104.758,104.758,0,0,0,18.617-5.557,147.875,147.875,0,0,0,19.558-9.539,180.55,180.55,0,0,0,19.463-12.984,215.382,215.382,0,0,0,19.4-16.715q1.155-1.12,2.29-2.256a1.6,1.6,0,0,0-.755-2.82,5.1,5.1,0,0,0-4.684,1.254Z" transform="translate(-90.313 -361.623)" fill="#892e00"/>
            <path id="パス_18934" data-name="パス 18934" d="M65.309,332.719a207.951,207.951,0,0,1,18.24-16.2q4.67-3.676,9.554-7.066,1.143-.795,2.3-1.566c.381-.255.766-.511,1.151-.766.442-.293.046-.03-.038.023.255-.168.511-.332.766-.5q2.367-1.532,4.787-2.984,4.665-2.807,9.516-5.29,1.035-.526,2.077-1.04l1.128-.549c.187-.091.377-.179.564-.271.313-.149.252-.118-.191.088.126-.057.252-.118.373-.175q2.309-1.075,4.657-2.062c1.566-.656,3.053-1.246,4.6-1.822q1.086-.406,2.184-.789c.3-.107.6-.21.9-.313l.541-.183c.591-.2-.877.286.03-.011,2.893-.937,5.827-1.753,8.8-2.412.3-.069,1.749-.351.476-.107.4-.076.793-.16,1.189-.236.728-.137,1.456-.267,2.188-.381q2.292-.366,4.6-.587c.16-.015.324-.027.484-.042-1.086.107-.267.023-.027.008.37-.027.743-.05,1.117-.072.732-.042,1.463-.069,2.2-.08s1.437-.011,2.153,0c.354.008.705.019,1.059.034.149.008.3.015.45.019.5.023-.739-.046.015,0a7.112,7.112,0,0,0,4.379-1.056c.823-.541,1.528-1.441.366-2.05a105.9,105.9,0,0,0-24.524-9.124,107.259,107.259,0,0,0-25.82-2.893,111.2,111.2,0,0,0-51.724,13.312,107.751,107.751,0,0,0-39.425,36.632A103.777,103.777,0,0,0,.35,370.951a105.994,105.994,0,0,0,1.284,25.492,103.633,103.633,0,0,0,7.5,24.513q1.292,2.887,2.759,5.686c.614,1.178,2.66.823,3.693.526s3.018-.949,2.935-2.3a61.363,61.363,0,0,1,1.212-15.778A100.975,100.975,0,0,1,25.064,391.3a158.125,158.125,0,0,1,21.811-37.577,211.244,211.244,0,0,1,18.43-21.018.833.833,0,0,0,.042-1.178A2.659,2.659,0,0,0,63.6,331.1a6.5,6.5,0,0,0-4.4,1.723A212.456,212.456,0,0,0,42.469,351.64a184.483,184.483,0,0,0-13.308,19.265,151.028,151.028,0,0,0-9.825,19.238,105.194,105.194,0,0,0-5.812,18.026,69.256,69.256,0,0,0-1.719,16.593c.015.629.046,1.254.084,1.883l6.627-1.776A103.592,103.592,0,0,1,6.71,376.279a103.373,103.373,0,0,1,12.3-48.195,100.364,100.364,0,0,1,6.753-10.793A106.026,106.026,0,0,1,34.1,307.085q1.149-1.235,2.336-2.439.577-.583,1.162-1.159c.183-.179.366-.354.549-.534.271-.263-.244.229.03-.027.133-.126.263-.252.4-.373q2.435-2.3,5.012-4.44c1.715-1.425,3.384-2.721,5.137-4q1.326-.966,2.683-1.89c.434-.3.877-.587,1.315-.88.271-.179-.164.1-.172.111a1.83,1.83,0,0,1,.354-.229c.267-.171.53-.343.8-.511q2.7-1.709,5.5-3.247c.941-.518,1.894-1.021,2.851-1.509.461-.236.926-.469,1.391-.7.248-.122.5-.244.747-.362.091-.046.187-.088.282-.133.518-.248.107.061-.1.046.183.015.575-.267.751-.347.221-.1.438-.2.659-.3.5-.225,1.006-.45,1.513-.667.979-.423,1.963-.827,2.954-1.219s1.982-.766,2.98-1.124c.484-.175.968-.343,1.452-.511l.678-.229c.366-.126-.415.137-.381.126.194-.061.389-.126.583-.191q2.967-.96,5.991-1.734,1.532-.394,3.076-.739c.267-.061.53-.118.8-.175.137-.031.964-.2.351-.076-.579.118.194-.038.351-.072.3-.061.6-.118.9-.175q3.047-.583,6.124-.983,1.612-.211,3.232-.37l.709-.069c.1-.008.2-.019.3-.027.549-.05-.16.011-.221.019.541-.038,1.079-.084,1.62-.122,2.092-.141,4.192-.217,6.288-.229q1.572-.011,3.144.027c1.048.027,2.115.183,3.144.122-.008,0-.541-.034-.221-.011l.4.023.709.046c.541.038,1.078.08,1.62.126,1.044.088,2.092.194,3.133.316q3.133.36,6.239.915t6.185,1.3c.1.023.2.049.3.072-.442-.107-.088-.023,0,0,.263.069.53.133.793.2.526.137,1.056.278,1.578.423.987.271,1.966.56,2.946.861a103.058,103.058,0,0,1,11.925,4.5q2.835,1.275,5.595,2.725,2.372-1.555,4.745-3.106a69.608,69.608,0,0,0-17.447,1.17,109.088,109.088,0,0,0-19.486,5.713,147.765,147.765,0,0,0-19.634,9.52A186.2,186.2,0,0,0,80.9,313.778a213.453,213.453,0,0,0-19.41,16.788q-1.149,1.12-2.287,2.256A.836.836,0,0,0,59.162,334a2.659,2.659,0,0,0,1.749.434,6.511,6.511,0,0,0,4.4-1.723Z" transform="translate(-0.091 -272.26)" fill="#892e00"/>
          </g>
          <g id="グループ_12022" data-name="グループ 12022">
            <path id="パス_18935" data-name="パス 18935" d="M65.229,510.4A198.613,198.613,0,0,1,35.361,472.56q-1.418-2.361-2.759-4.775c-.419-.758-.835-1.517-1.242-2.283-.2-.377-.4-.758-.6-1.14-.1-.191-.2-.377-.3-.568-.122-.236-.13-.252-.027-.053l-.194-.377q-2.344-4.6-4.345-9.368a105.711,105.711,0,0,1-5.789-17.923,75.311,75.311,0,0,1-1.482-9.352q-.1-1.121-.168-2.241c-.008-.114-.03-.663,0-.053-.008-.21-.019-.419-.027-.629-.011-.366-.023-.728-.03-1.094-.023-1.422.008-2.839.091-4.261s-1.376-1.921-2.569-1.913a4.5,4.5,0,0,0-3.91,1.951A106.329,106.329,0,0,0,2.846,443,104.456,104.456,0,0,0,0,468.2,104.316,104.316,0,0,0,12.96,518.041a103.97,103.97,0,0,0,15.583,21.426A106.941,106.941,0,0,0,49.6,556.762a104.055,104.055,0,0,0,23.968,11.06,106.41,106.41,0,0,0,25.523,4.8A108.315,108.315,0,0,0,125.02,571.2a113.225,113.225,0,0,0,25.885-7.9q2.887-1.292,5.69-2.763c.835-.435,2.313-1.452,1.9-2.637s-1.867-1.4-2.965-1.334c-.6.038-1.2.065-1.8.084-.3.008-.61.011-.915.019-.61.011.846,0,.232,0h-.617c-1.319-.015-2.633-.076-3.944-.175s-2.725-.252-4.078-.438q-1-.137-2-.3c-.335-.057-.675-.114-1.01-.175-.168-.031-.339-.065-.507-.091.941.152.107.019-.091-.019a100.67,100.67,0,0,1-17.615-5.3q-1.115-.44-2.218-.9c-.374-.156-.743-.312-1.117-.472l-.56-.24c-.126-.053-.248-.107-.374-.164.32.141.343.152.069.03q-2.367-1.058-4.7-2.2-4.745-2.327-9.318-4.977a181.59,181.59,0,0,1-18.99-12.691q-2.7-2.058-5.339-4.2-1.338-1.092-2.653-2.2-.663-.56-1.322-1.124c.015.011-.6-.518-.29-.248-.252-.217-.5-.435-.755-.656q-5.356-4.682-10.389-9.714c-1.128-1.128-3.106-1.021-4.459-.347-.9.45-2.813,1.978-1.635,3.152a216.994,216.994,0,0,0,19.192,17.032A185.212,185.212,0,0,0,97.7,543.617a152.3,152.3,0,0,0,19.448,9.852,105,105,0,0,0,18.118,5.823,73.5,73.5,0,0,0,17.695,1.806c.629-.015,1.254-.046,1.879-.084l-1.063-3.971a104.188,104.188,0,0,1-11.7,5.229l-.674.252c-.13.046-.259.1-.385.141l.377-.137c-.518.175-1.033.362-1.551.537q-1.555.526-3.121,1-2.984.9-6.018,1.631c-1.025.244-2.054.476-3.087.69q-.749.154-1.5.3c-.232.046-.469.088-.7.134-.575.107.252-.046.3-.053-.168.026-.335.061-.5.088q-3.1.537-6.243.892c-2.088.236-4.112.4-6.174.507-1.048.053-2.1.1-3.144.118-.5.011-1.021-.023-1.521.023.061,0,.793,0,.236,0h-.408c-.271,0-.541,0-.812,0A104.017,104.017,0,0,1,94.6,567.5c-1.01-.133-2.016-.278-3.018-.442-.5-.08-1-.168-1.505-.255-.267-.046-.534-.1-.8-.145-.328-.057.255.05.255.05-.164-.034-.335-.065-.5-.1q-3.1-.606-6.162-1.395a102.386,102.386,0,0,1-11.978-3.895q-1.532-.606-3.049-1.258c-.1-.042-.762-.332-.442-.19s-.011,0-.065-.027c-.126-.057-.252-.114-.377-.168-.5-.225-1-.457-1.5-.694q-2.915-1.372-5.736-2.919a102.943,102.943,0,0,1-10.995-6.982q-2.63-1.915-5.137-3.99c-.415-.343-.823-.69-1.235-1.037-.111-.091-.217-.187-.328-.282.072.065.328.286-.023-.023-.217-.191-.434-.381-.648-.572q-1.258-1.115-2.477-2.271A104.487,104.487,0,0,1,22.122,520.48q-1.721-2.749-3.266-5.6c-.232-.427-.461-.857-.686-1.288-.038-.076-.408-.793-.213-.408-.126-.248-.252-.5-.373-.743-.5-.987-.972-1.986-1.437-2.988A103.575,103.575,0,0,1,6.885,473q-.051-.76-.091-1.521c-.015-.259,0,.034,0,.072-.008-.133-.011-.271-.019-.4-.011-.3-.027-.61-.034-.915q-.057-1.572-.061-3.144-.017-3.1.156-6.189a104.091,104.091,0,0,1,4.383-24.715c.309-1.014.636-2.02.976-3.026.046-.137.248-.716.1-.293.091-.259.183-.518.274-.774.187-.514.373-1.029.568-1.543q1.126-2.99,2.435-5.911c.873-1.944,1.757-3.758,2.717-5.6q-3.241.017-6.479.038a66.275,66.275,0,0,0,1.2,16.483,100.367,100.367,0,0,0,5.328,17.923A146.507,146.507,0,0,0,27.7,472.7a181.03,181.03,0,0,0,12.832,19.246A208.285,208.285,0,0,0,56.882,510.93q1.12,1.155,2.252,2.287c1.128,1.128,3.11,1.021,4.459.347.9-.45,2.813-1.974,1.635-3.152Z" transform="translate(0.002 -361.451)" fill="#96320a"/>
            <path id="パス_18936" data-name="パス 18936" d="M239.068,333.872a196.793,196.793,0,0,1,29.814,37.714c6.8,11.368,12.477,23.678,15.343,36.666a75.676,75.676,0,0,1,1.486,9.368q.206,2.218.252,4.451c.031,1.608.015,2.412-.084,3.986-.088,1.391,1.822,1.4,2.813,1.246,1.456-.229,3.076-.777,3.792-2.149a103.811,103.811,0,0,0,9.021-24.116,106.092,106.092,0,0,0,2.816-25.42,103.54,103.54,0,0,0-12.855-49.1,105.068,105.068,0,0,0-36.819-38.705A100.742,100.742,0,0,0,231.1,277a110.387,110.387,0,0,0-25.911-4.783,106.7,106.7,0,0,0-25.915,1.517A113.2,113.2,0,0,0,153.4,281.7q-3.167,1.429-6.246,3.045c-.549.286-1.494.995-1.292,1.749s1.376.907,1.993.869a58.023,58.023,0,0,1,7.721.053c.595.042-.69-.061-.091-.008.16.015.324.027.484.042.324.031.648.061.972.1.713.076,1.421.16,2.13.259q2.1.286,4.192.694c1.391.271,2.874.6,4.3.949.7.175,1.4.355,2.1.545.175.05.351.1.53.145-.6-.168,0,0,.107.031.415.118.827.24,1.242.366,3.064.922,6.082,1.986,9.055,3.167a158.031,158.031,0,0,1,37.508,21.769,210.449,210.449,0,0,1,20.968,18.4c1,1,3.247.454,4.36-.034.7-.309,2.847-1.452,1.814-2.485a211.834,211.834,0,0,0-18.872-16.776,188.491,188.491,0,0,0-19.566-13.495,147.542,147.542,0,0,0-18.964-9.653,108.621,108.621,0,0,0-18.5-5.926,70.389,70.389,0,0,0-16.967-1.742c-.625.019-1.25.046-1.875.088l.7,2.618c.461-.24.922-.48,1.387-.713.217-.11.434-.217.648-.324.122-.061.248-.122.373-.183.636-.316-.476.229-.1.046.964-.461,1.932-.915,2.908-1.349q2.915-1.3,5.911-2.416,1.441-.537,2.9-1.033c.553-.191-.232.08-.282.1.13-.042.259-.088.389-.129l.781-.252c.518-.168,1.04-.328,1.563-.488q2.984-.9,6.018-1.62c1.025-.244,2.062-.438,3.087-.682-.049.011-.869.172-.3.061l.4-.08c.232-.046.465-.091.7-.133.534-.1,1.067-.2,1.6-.29q3.1-.532,6.243-.877,1.566-.172,3.133-.3c.126-.011.934-.061.392-.03s.267-.019.393-.027c.541-.034,1.082-.065,1.62-.092q3.144-.149,6.288-.114c2.1.023,4.2.114,6.288.267.133.011.271.027.4.031l-.229-.019.808.069c.541.05,1.079.1,1.616.156q1.566.166,3.129.377a103.523,103.523,0,0,1,12.283,2.431c.5.13.987.263,1.479.4-.457-.126.133.038.286.08.293.084.591.172.884.259q1.521.452,3.03.949,2.973.983,5.888,2.146a102.676,102.676,0,0,1,11.6,5.492,96.612,96.612,0,0,1,10.728,6.864,105.1,105.1,0,0,1,26.849,28.934,101.7,101.7,0,0,1,10.541,22.977,103.73,103.73,0,0,1,4.63,24.665,101.526,101.526,0,0,1-1.418,24.749,103.56,103.56,0,0,1-7.462,24.109q-1.275,2.835-2.721,5.591l6.6-.907a65.31,65.31,0,0,0-1.155-16.365,100.128,100.128,0,0,0-5.305-17.855,141.967,141.967,0,0,0-9.223-18.918,184.838,184.838,0,0,0-12.984-19.452A209.352,209.352,0,0,0,247.5,333.651c-.747-.77-1.5-1.532-2.26-2.294-.995-1-3.251-.454-4.36.034-.7.309-2.847,1.452-1.814,2.485Z" transform="translate(-90.257 -272.006)" fill="#892e00"/>
          </g>
        </g>
        <g id="B_アクスタ" transform="translate(2.521)">
          <g id="グループ_12026" data-name="グループ 12026" transform="translate(0.82 58.485)">
            <g id="グループ_12024" data-name="グループ 12024">
              <path id="パス_18937" data-name="パス 18937" d="M247.572,515.407c-31.224,31.19-67.524,48.614-92.982,46.986A103.733,103.733,0,0,0,294.6,422.36C296.224,447.848,278.815,484.164,247.572,515.407Z" transform="translate(-99.016 -366.829)" fill="#f09614"/>
              <path id="パス_18938" data-name="パス 18938" d="M67.625,335.489c31.216-31.243,67.532-48.667,92.982-47.006a103.741,103.741,0,0,0-140.033,140c-1.589-25.488,15.808-61.751,47.051-92.994Z" transform="translate(-8.766 -276.651)" fill="#f09614"/>
            </g>
            <g id="グループ_12025" data-name="グループ 12025" transform="translate(0 0.002)">
              <path id="パス_18939" data-name="パス 18939" d="M67.607,515.407c-31.224-31.243-48.633-67.559-47.032-93.047A103.749,103.749,0,0,0,160.612,562.393c-25.45,1.628-61.77-15.8-93-46.986Z" transform="translate(-8.766 -366.831)" fill="#fabe41"/>
              <path id="パス_18940" data-name="パス 18940" d="M247.572,335.492C278.815,366.735,296.224,403,294.6,428.486a103.728,103.728,0,0,0-140.007-140C180.052,286.825,216.348,304.249,247.572,335.492Z" transform="translate(-99.016 -276.655)" fill="#fabe41"/>
            </g>
          </g>
          <g id="グループ_12035" data-name="グループ 12035">
            <path id="パス_18941" data-name="パス 18941" d="M188.647,166.609a90.937,90.937,0,0,0-14.166-2.527l2.092,1.242A75.3,75.3,0,0,0,148.311,134.5a78.058,78.058,0,0,0-40.233-11.307,83.09,83.09,0,0,0-43.614,12.249A78.77,78.77,0,0,0,35.53,166.769a75.949,75.949,0,0,0-7.9,41.266q.24,2.567.659,5.107l4.535-3.018c-2.424-.313-4.844-.656-7.256-1.048l-.636-.1c-.69-.114.324.053-.2-.034-.648-.107-1.3-.217-1.947-.324-1.151-.191-2.3-.373-3.453-.545-5.29-.785-11.06,2.092-12.493,7.466a9.743,9.743,0,0,0,.678,5.972,27.043,27.043,0,0,0,3.826,6.708,39.933,39.933,0,0,0,13.922,11,45.252,45.252,0,0,0,16.319,4.775l-1.833-.758c6.723,11.464,16.033,21.6,27.878,27.855a62.806,62.806,0,0,0,10.576,4.387l-1.341-1.12a52.96,52.96,0,0,0,4.794,15.968,32.305,32.305,0,0,0,7.191,10.031,17.913,17.913,0,0,0,5.983,3.914,10.421,10.421,0,0,0,7.519-.393c4.5-1.86,7.222-6.235,8.788-10.637,2.092-5.884,2.176-12.489,1.742-18.647l-3.689,3a111.644,111.644,0,0,0,22.779-5.839,110.267,110.267,0,0,0,20.4-9.768,83.807,83.807,0,0,0,8.975-6.349l-4.1.77a61.067,61.067,0,0,0,17.222.461,59.8,59.8,0,0,0,13.087-2.374c5.1-1.692,10.987-4.741,13.343-9.894a7.722,7.722,0,0,0,.446-6.086,15.87,15.87,0,0,0-4.39-5.831,32.027,32.027,0,0,0-6.456-4.6,45.173,45.173,0,0,0-9.387-3.453l1.361,1.669c3.929-11.357,4.276-23.579,2.283-35.363l-2.79,2.839a66.058,66.058,0,0,0,11.734-3.2,23.732,23.732,0,0,0,9.261-6.189c1.845-2.2,3.3-5.366,1.932-8.175-1.242-2.546-3.784-4.257-6.2-5.579a50.652,50.652,0,0,0-10.042-4.032,5.048,5.048,0,0,0-4.684,1.254,1.552,1.552,0,0,0,.739,2.759,45.879,45.879,0,0,1,7.348,2.771,28.369,28.369,0,0,1,3.441,1.955c.271.183.534.374.8.568.034.027.351.271.1.061.088.072.175.149.259.225a10.109,10.109,0,0,1,1.193,1.231c.145.179.278.366.408.556a3.46,3.46,0,0,1,.194.324c-.19-.354-.042-.072-.015,0a6.88,6.88,0,0,1,.316,1.12,4.709,4.709,0,0,1-1.056,3.247c-.072.107-.149.217-.229.32.232-.3-.057.049-.092.088-.255.267-.5.541-.762.8-.13.122-.667.6-.56.511.221-.183-.152.118-.16.122-.236.179-.473.354-.717.526q-.869.606-1.8,1.128c.5-.278-.511.252-.625.309-.37.183-.743.354-1.12.518s-.785.316-1.174.48c-.362.152.179-.057.21-.069-.233.08-.465.156-.7.232-.869.282-1.749.534-2.633.766-2.115.56-4.253,1.025-6.395,1.46-1.239.252-3.041,1.364-2.79,2.839,1.936,11.452,1.49,23.228-2.325,34.261-.29.842.713,1.5,1.361,1.669a33.094,33.094,0,0,1,10.385,4.284,26.04,26.04,0,0,1,4.078,3.239,19.34,19.34,0,0,1,1.761,1.944,9.681,9.681,0,0,1,1.246,1.974,6.542,6.542,0,0,1,.351,1.04c.034.137.065.274.088.415,0,.023.061.694.05.274a6.541,6.541,0,0,1-.3,1.932c-.034.118-.076.24-.118.358.191-.511-.057.091-.088.16a10.06,10.06,0,0,1-.48.892c-.187.3-.389.6-.6.884.32-.427.011-.019-.08.076-.183.2-.358.408-.549.6-.286.293-.587.564-.884.842-.591.549.293-.221-.1.088-.175.137-.347.271-.526.4-.37.271-.751.526-1.136.77-.244.152-.488.3-.735.442.5-.29-.152.076-.3.156a24.762,24.762,0,0,1-2.923,1.261c.545-.194-.171.046-.3.088-.3.091-.614.179-.922.259-.614.164-1.231.3-1.852.442-.351.076-.705.149-1.056.217-.232.046-.911.29,0,0a5.58,5.58,0,0,1-.705.126c-1.829.316-3.67.564-5.515.755-2.085.217-4.169.339-6.262.408-.572.019.758,0-.194,0h-.739c-.537,0-1.079-.008-1.616-.027q-1.515-.046-3.022-.175c-.511-.046-1.021-.1-1.528-.168-.183-.023-.362-.05-.545-.072-.057-.008-.941-.16-.312-.046a6.6,6.6,0,0,0-3.015-.042,6.532,6.532,0,0,0-2.5,1.433q-2.424,1.921-5,3.647-2.693,1.812-5.515,3.426c-.183.107-.37.21-.553.312-.019.011-.934.518-.381.213-.473.259-.949.514-1.425.766q-1.606.846-3.247,1.635-3.739,1.8-7.6,3.327-1.9.755-3.815,1.444c.579-.21-.556.194-.53.187l-1.037.354q-1.029.343-2.058.671c-2.645.835-5.316,1.57-8.018,2.188-.648.149-1.3.293-1.951.427-.213.046-.431.088-.644.133-.122.023-1.421.274-.7.141-1.258.232-2.519.431-3.784.606-1.563.217-3.826,1.082-3.689,3a48.7,48.7,0,0,1-.957,14.756,21.522,21.522,0,0,1-2.489,6.212c-.24.4-.5.777-.77,1.151.316-.438-.141.175-.179.217-.149.175-.3.347-.457.511-.252.267-.515.511-.781.758-.518.488.522-.351-.053.034-.217.145-.434.3-.652.442-.564.377.7-.271.076-.046a2.344,2.344,0,0,0-.332.153c-.575.328.835-.191.194-.065a2.208,2.208,0,0,0-.5.126c.259-.32.877-.072.2-.069.96,0,.236-.023.034-.034-.507-.023.038,0,.133.023-.278-.084-.56-.156-.838-.244-.675-.21.415.244-.225-.1-.21-.114-.427-.213-.636-.328-.362-.2-.716-.423-1.059-.655a16.042,16.042,0,0,1-2.294-1.883,30.23,30.23,0,0,1-6.208-8.422,52.83,52.83,0,0,1-4.966-16.327c-.076-.595-.873-.972-1.341-1.121a57.784,57.784,0,0,1-19.776-10.9,76.007,76.007,0,0,1-15.5-18.388c-.236-.389-.473-.777-.705-1.17a2.553,2.553,0,0,0-2.142-1.281c-.816-.1-1.631-.183-2.443-.3.636.1.088.015-.072-.015-.2-.038-.4-.072-.6-.114-.415-.08-.827-.168-1.239-.263-.918-.21-1.829-.454-2.729-.724a44.175,44.175,0,0,1-11.7-5.629,31.063,31.063,0,0,1-8.994-8.906,20.636,20.636,0,0,1-2.367-4.771,14.225,14.225,0,0,1-.579-2.275,3.091,3.091,0,0,1-.034-.373c.023.465.019-.168.023-.221a6.468,6.468,0,0,1,.164-1.079c.038-.164.091-.328.133-.492.13-.492-.13.206.084-.217.191-.381.4-.735.606-1.1.332-.575-.229.244.034-.061.164-.191.343-.362.511-.553.332-.373-.008-.015-.1.057.2-.152.446-.274.629-.438.328-.3-.709.332-.05.042s-.675.141,0-.011l.229-.061c.373-.084.309-.072-.191.031.061-.088,1.021-.008.164-.046a29.5,29.5,0,0,1,3.167.408c.442.069.884.141,1.326.213.225.038.45.072.675.11.168.027.854.141.111.019q1.492.252,2.988.492c2.2.354,4.4.659,6.608.945,1.608.206,4.878-.918,4.535-3.018a72.668,72.668,0,0,1,5.709-41.784,75.551,75.551,0,0,1,5.183-9.39,66.216,66.216,0,0,1,6.269-8.281A76.049,76.049,0,0,1,60,144.162c.137-.118.278-.232.415-.351.686-.579-.45.354.252-.206.32-.255.636-.511.96-.766q1.132-.886,2.294-1.73,2.235-1.618,4.581-3.072,1.183-.732,2.393-1.422c-.011.008.785-.442.362-.206s.377-.206.366-.2c.5-.267.991-.53,1.49-.785q2.521-1.292,5.137-2.4c.877-.373,1.765-.728,2.656-1.067q.663-.252,1.326-.492c-.114.042-.686.236-.065.023l.8-.274q2.778-.932,5.621-1.65c.846-.213,1.7-.415,2.553-.6q.606-.131,1.212-.252c.271-.053.537-.107.808-.156-.591.114-.168.031.179-.027q2.681-.463,5.385-.736c1.8-.179,3.758-.293,5.64-.354.137,0,.625-.008-.042,0,.225,0,.446,0,.671-.008h1.2c.976.011,1.955.038,2.931.088q2.647.131,5.286.446c.873.107,1.745.225,2.618.362l.4.065c-.423-.069.431.076.4.072.476.084.949.172,1.425.267a75.452,75.452,0,0,1,10.244,2.778,66.406,66.406,0,0,1,9.436,4.1,74.322,74.322,0,0,1,8.994,5.545,72.146,72.146,0,0,1,20.911,23.75c.393.716.755,1.444,1.132,2.176.8,1.559,3.095,1.357,4.638,1.57.968.133,2.226.324,3.014.454s1.955.343,2.9.526c1.41.278,2.824.572,4.2.968a5.049,5.049,0,0,0,4.684-1.254,1.551,1.551,0,0,0-.739-2.759Z" transform="translate(-6.613 -123.189)" fill="#96320a"/>
            <path id="パス_18942" data-name="パス 18942" d="M411.64,390.43a48.855,48.855,0,0,1,21.8,4.993c3.518,1.94,10.195,6.94,10.187,11.441-.008,3.96-4,8.56-11.422,11.075-4.768,1.616-20.023,3.975-29.448,1.486,2.683-10.259,10.092-19.829,8.884-28.991Z" transform="translate(-251.786 -288.572)" fill="#dc550a"/>
            <g id="グループ_12027" data-name="グループ 12027" transform="translate(150.974 101.84)" clip-path="url(#clip-path-2)">
              <ellipse id="楕円形_550" data-name="楕円形 550" cx="15.145" cy="12.077" rx="15.145" ry="12.077" transform="translate(12.862 0.184) rotate(-21.14)" fill="#fa7d00"/>
            </g>
            <path id="パス_18944" data-name="パス 18944" d="M199.19,504.491a52.252,52.252,0,0,0,7.191,21.723c2.256,3.384,7.82,9.657,12.176,9.161,3.834-.434,7.851-5.015,9.482-12.862a55.33,55.33,0,0,0-.8-23.293A70.248,70.248,0,0,1,199.19,504.491Z" transform="translate(-125.798 -355.912)" fill="#dc550a"/>
            <path id="パス_18945" data-name="パス 18945" d="M434.78,257.5c-5.217,2.161-16.407,3.971-21.658,4.836-2.5-9.775-8.285-19.974-14.932-28.015a.514.514,0,0,1,.076,0c10.446-1.14,26.285,1.6,30.748,2.9,5.995,1.749,14.932,5.5,15.37,10s-4.52,8.171-9.608,10.278Z" transform="translate(-248.958 -191.8)" fill="#ffa519"/>
            <path id="パス_18946" data-name="パス 18946" d="M171.869,272.729c-50.626,19.577-82.49-4.4-97.281-42.455-14.806-38.1,4.63-81.2,43.37-96.26,38.758-15.069,82.159,3.605,96.965,41.7C229.714,213.768,222.012,253.339,171.869,272.729Z" transform="translate(-45.61 -126.659)" fill="#fa7d00"/>
            <path id="パス_18947" data-name="パス 18947" d="M121.886,372.123q-.332-.9-.629-1.818c-.286-.7-.564-1.4-.827-2.115l1.456,3.933Z" transform="translate(-77.054 -274.819)" fill="#fff" opacity="0.41"/>
            <path id="パス_18948" data-name="パス 18948" d="M44.246,353.316c-1.635.442-3.369.537-7.18.05-6.8-.873-8.327-1.284-13.846-2.107a6.786,6.786,0,0,0-7.756,7.828c1.109,5.412,5.591,11.624,11.81,15.919,12.5,8.624,23.388,8.407,27.805,7.931-.507-.823-1.006-1.65-1.494-2.5a80.493,80.493,0,0,1-9.337-27.123Z" transform="translate(-12.025 -264.285)" fill="#fa7d00"/>
            <g id="グループ_12029" data-name="グループ 12029" transform="translate(24.014 2.137)" clip-path="url(#clip-path-3)">
              <g id="グループ_12028" data-name="グループ 12028" transform="translate(14.474 -49.085)">
                <path id="パス_18949" data-name="パス 18949" d="M110.129,111.811c-1.848,7.618-6.868,32.482,5.995,57.52,16.422,31.963,54.811,50.253,89.35,41.476,49.86-12.668,70.245-76.282,54.719-102.948C244.358,80.663,181.682,75.61,110.129,111.811Z" transform="translate(-107.604 -53.261)" fill="#ffa519"/>
                <path id="パス_18950" data-name="パス 18950" d="M165.454,20.914c-2.95,3.651-17.283,21.376-11.8,44.159,4.84,20.122,22.52,33.332,39.563,36.849,22.5,4.642,42.855-7.836,53.187-23.609,2.184-3.335,16.269-25.675,5.553-49.567-9.623-21.464-31.5-26.883-34.486-27.569C187.669-5.672,166.59,19.508,165.454,20.914Z" transform="translate(-135.337 0.002)" fill="#ffbe1e"/>
                <path id="パス_18951" data-name="パス 18951" d="M197.373,101.42c-3.708,3.335-10.332,8.43-9.547,17.245.64,7.214,8.682,13.548,13.476,15.614,3.586,1.543,19.017,4.28,33.221-3.293,1.719-.915,18.2-9.7,16.563-21.792-1.456-10.774-16.174-15.9-22.954-17.234-15.32-3.015-26.994,6.079-30.759,9.463Z" transform="translate(-157.213 -56.54)" fill="#ffd246"/>
                <path id="パス_18952" data-name="パス 18952" d="M279.583,130.751c1.223,2.919-2.2,5.591-7.645,5.964s-10.858-1.684-12.081-4.6,2.2-5.591,7.645-5.964,10.858,1.685,12.081,4.6Z" transform="translate(-201.679 -78.044)" fill="#ffffc8"/>
              </g>
            </g>
            <g id="グループ_12030" data-name="グループ 12030" transform="translate(24.014 2.137)" clip-path="url(#clip-path-3)">
              <path id="パス_18954" data-name="パス 18954" d="M27.22,369.216s14.737,6.566,20.705,4.943,4.493-1.738,4.493-1.738S72,423.63,138.983,403.34c0,0,46.739-13.461,56.8-53.53l6.608,16.525-42.5,47.554L124.406,426.7,78.14,421.877Z" transform="translate(-43.38 -265.58)" fill="#dd560b"/>
            </g>
            <g id="グループ_12031" data-name="グループ 12031" transform="translate(3.332 86.885)" clip-path="url(#clip-path-5)">
              <path id="パス_18956" data-name="パス 18956" d="M27.22,369.216s14.737,6.566,20.705,4.943,4.493-1.738,4.493-1.738,22.817,58.523,88.554,36.06c0,0,40.111-6.871,54.811-58.671l6.608,16.525-42.5,47.554L124.406,426.7,78.14,421.877Z" transform="translate(-22.699 -350.328)" fill="#dc550a"/>
            </g>
            <g id="グループ_12032" data-name="グループ 12032" transform="translate(149.232 42.25)" clip-path="url(#clip-path-6)">
              <ellipse id="楕円形_551" data-name="楕円形 551" cx="11.513" cy="16.064" rx="11.513" ry="16.064" transform="matrix(0.17, -0.985, 0.985, 0.17, 15.461, 10.286)" fill="#ffbe1e"/>
            </g>
            <g id="グループ_12033" data-name="グループ 12033" transform="translate(39.408 22.337)">
              <path id="パス_18959" data-name="パス 18959" d="M153.778,188.353c-35.1,12.992-45.973,40.839-38.747,63.2,8.072,25.622,29.551,33.37,69.06,18.747,39.879-14.756,50.7-35.973,40.649-59.35-9.04-21.689-35.283-35.8-70.958-22.6Z" transform="translate(-111.81 -182.694)" fill="#fff"/>
              <path id="パス_18960" data-name="パス 18960" d="M151.57,187.082a81.613,81.613,0,0,0-18.266,9.394,60.069,60.069,0,0,0-12.79,11.871,49.7,49.7,0,0,0-7.641,13.411,45.164,45.164,0,0,0-2.824,14.135,42.9,42.9,0,0,0,1.7,13.8,47.518,47.518,0,0,0,5.736,12.832,31.72,31.72,0,0,0,8.716,8.956,34.224,34.224,0,0,0,12.077,4.928,53.288,53.288,0,0,0,15.545.591,98.39,98.39,0,0,0,18.872-3.857,151.778,151.778,0,0,0,21.521-8.16,90.2,90.2,0,0,0,16.677-9.935,49.822,49.822,0,0,0,10.747-11.006,33.322,33.322,0,0,0,5.275-12,32.693,32.693,0,0,0,.076-12.775,46.151,46.151,0,0,0-4.737-13.3,44.156,44.156,0,0,0-9.238-11.875,46.817,46.817,0,0,0-13.282-8.365,52.9,52.9,0,0,0-16.982-3.815,70.681,70.681,0,0,0-20.321,1.875,92.348,92.348,0,0,0-10.862,3.293c-.267.1-.9.434-.614.789s1.143.08,1.448-.034a77.327,77.327,0,0,1,20.637-4.733,56.932,56.932,0,0,1,17.942,1.33,46.571,46.571,0,0,1,14.581,6.3,43.983,43.983,0,0,1,10.9,10.217,45.522,45.522,0,0,1,6.7,12.817,37.75,37.75,0,0,1,2.2,12.778,30.032,30.032,0,0,1-2.679,12.066,38.4,38.4,0,0,1-7.858,11.2,64.476,64.476,0,0,1-13.316,10.111,120.986,120.986,0,0,1-19.25,8.964,126.257,126.257,0,0,1-19.875,5.823,67.325,67.325,0,0,1-16.349,1.4,37.576,37.576,0,0,1-12.961-2.847,29.726,29.726,0,0,1-9.916-6.959,37.318,37.318,0,0,1-6.948-10.892A48.284,48.284,0,0,1,112.522,242a43.525,43.525,0,0,1,.6-13.8,47.041,47.041,0,0,1,5.133-13.567,52.587,52.587,0,0,1,9.951-12.428,67.083,67.083,0,0,1,15.057-10.385,84.627,84.627,0,0,1,9.143-3.99c.267-.1.9-.434.614-.789s-1.143-.08-1.448.034Z" transform="translate(-110.017 -181.8)" fill="#dc550a"/>
            </g>
            <g id="グループ_12034" data-name="グループ 12034" transform="translate(83.083 76.35)">
              <path id="パス_18961" data-name="パス 18961" d="M260.542,325.618s-10.5,5.362-14.2,6.814-15.038,4.661-15.038,4.661c-3.354.858-2.912,4.867-.011,7.169a26.821,26.821,0,0,0,2.786,2.077,23.289,23.289,0,0,0,2.992,1.513,28.343,28.343,0,0,0,6.654,1.4A19.217,19.217,0,0,0,259.662,343a28.382,28.382,0,0,0,3.933-5.553,23.62,23.62,0,0,0,1.17-3.148,15.4,15.4,0,0,0,.636-3.418c.32-3.727-1.822-6.909-4.863-5.255Z" transform="translate(-227.302 -324.545)" fill="#fa7d00"/>
              <path id="パス_18962" data-name="パス 18962" d="M256.918,324.419c-4.219,2.153-8.453,4.314-12.79,6.223-.252.111-.5.221-.755.328-.114.05-.229.1-.339.141s-.381.13.13-.05c-.061.023-.122.05-.183.072-.518.2-1.04.385-1.566.564-.656.225-1.311.438-1.97.652-.343.111-.69.221-1.033.328-.175.057-.354.11-.53.168l-.213.069c-.248.076-.232.042,0,0a22.242,22.242,0,0,0-2.287.7c-.747.225-1.467.438-2.2.655q-1.726.509-3.457,1.006c-2.2.633-5.065,1.33-5.111,4.1a5.759,5.759,0,0,0,2.127,4.177,23.467,23.467,0,0,0,4.771,3.255,20.948,20.948,0,0,0,6.78,1.9,24.551,24.551,0,0,0,7.008-.049,22.824,22.824,0,0,0,12.043-5.682,26.259,26.259,0,0,0,4.242-5.221,15.082,15.082,0,0,0,1.494-2.881c.3-.819.595-1.658.812-2.5a10.749,10.749,0,0,0,.141-6.067,3.729,3.729,0,0,0-3.464-2.786A8.37,8.37,0,0,0,256.6,324.6c-.1.053-.446.274-.4.461s.454.2.576.2a4.969,4.969,0,0,0,2.344-.629c-.274.145.366-.1-.111.05a4.206,4.206,0,0,1-.431.111c.278-.057-.038,0-.08.011-.381.061.114.042-.118,0a2.162,2.162,0,0,1,.831.29,3.458,3.458,0,0,1,1.284,1.536,9.155,9.155,0,0,1,.3,5.671,21.083,21.083,0,0,1-5.568,10.118,18.736,18.736,0,0,1-4.543,3.529,16.269,16.269,0,0,1-2.115.941c-.114.042-.232.08-.347.118-.088.03-.408.126-.053.019-.213.061-.423.122-.636.179-.107.03-.72.172-.343.088q-.435.092-.869.172c-.1.015-.194.03-.293.05.286-.046-.034,0-.107.015-.221.027-.442.053-.667.072a12.643,12.643,0,0,1-1.292.065,21.046,21.046,0,0,1-3.095-.217,19.541,19.541,0,0,1-6.281-1.776,22.048,22.048,0,0,1-2.146-1.22c-.819-.56-1.6-1.2-2.363-1.829a5.621,5.621,0,0,1-2.142-3.883,2.8,2.8,0,0,1,.457-1.738,1.564,1.564,0,0,1,.2-.248c.057-.057.122-.111.187-.164.038-.034.221-.149.057-.046.061-.038.122-.072.183-.107-.377.2.332-.076-.183.091-.076.023-.366.107-.08.027.5-.137,1.006-.286,1.505-.431,2.523-.728,5.038-1.467,7.546-2.241a79.072,79.072,0,0,0,7.485-2.557c4.493-1.9,8.849-4.165,13.2-6.376.1-.053.206-.107.309-.156.244-.126,1.147-.636.423-.8a4.024,4.024,0,0,0-2.309.438Z" transform="translate(-224.619 -323.526)" fill="#dc550a"/>
            </g>
            <path id="パス_18963" data-name="パス 18963" d="M174.573,280.722a5.489,5.489,0,0,0-6.395-3.339h-.027a6.834,6.834,0,0,0-5.435,5.732c.015,0-1.159,4.833.435,12.451a36.354,36.354,0,0,0,4.478,11.746c1.326,2.188,3.6,3.964,6.483,3.339h.023c2.866-.69,3.994-3.232,4.185-5.732a54.444,54.444,0,0,0-.625-12.451c-1.1-7.614-3.095-11.746-3.125-11.746Z" transform="translate(-102.976 -218.541)" fill="#320f0a"/>
            <path id="パス_18964" data-name="パス 18964" d="M294.176,235.676c-.85-2.4-.8-5.179,1.833-6.8h0a.054.054,0,0,0,.011-.008.056.056,0,0,0,.011-.008h0c2.675-1.562,5.717-.625,7.881,1.01a35.972,35.972,0,0,1,8.716,9.558c4.173,6.555,4.535,11.262,4.566,11.258a6.406,6.406,0,0,1-3.194,6.8h0a.014.014,0,0,0-.011.008s-.008,0-.011.008h0a5.554,5.554,0,0,1-6.963-1.01c-.038,0-3.247-3.011-7.237-9.558a58.506,58.506,0,0,1-5.606-11.258Z" transform="translate(-184.282 -188.094)" fill="#320f0a"/>
            <path id="パス_18965" data-name="パス 18965" d="M184.16,306.286c.537,3.781-.884,5.739-2.409,6.113s-2.569-.979-3.106-4.756.636-6.3,2.161-6.677S183.622,302.5,184.16,306.286Z" transform="translate(-113.001 -233.185)" fill="#fff"/>
            <path id="パス_18966" data-name="パス 18966" d="M316.766,254.868c-2.146-3.156-4.71-4.234-6.09-3.487s-1.048,3.037,1.1,6.193,4.516,3.651,5.9,2.9S318.912,258.028,316.766,254.868Z" transform="translate(-194.284 -202.386)" fill="#fff"/>
          </g>
          <path id="パス_18967" data-name="パス 18967" d="M191.8,515.56a24.807,24.807,0,0,0,7.63,1.707,18.049,18.049,0,0,1-6.936.747C188.766,517.641,191.8,515.56,191.8,515.56Z" transform="translate(-120.504 -366.025)" fill="#96320a"/>
          <path id="パス_18968" data-name="パス 18968" d="M269.383,522.2a41.386,41.386,0,0,1-7.153.446,18.158,18.158,0,0,0,7.153,1.715C273.343,524.437,269.383,522.2,269.383,522.2Z" transform="translate(-164.813 -370.135)" fill="#96320a"/>
          <path id="パス_18969" data-name="パス 18969" d="M455.38,391.7a59.268,59.268,0,0,0,2.652-7.531c.313-1.936,2.336,2.05,2.336,2.05S458.078,391.025,455.38,391.7Z" transform="translate(-284.353 -284.379)" fill="#96320a"/>
          <path id="パス_18970" data-name="パス 18970" d="M408.94,458.28a57.309,57.309,0,0,1-4.89,4.23c-1.673,1.139,2.035,1.639,2.443,1.341a21.672,21.672,0,0,0,2.443-5.568Z" transform="translate(-252.318 -330.575)" fill="#96320a"/>
        </g>
      </g>
    </g>
  </g>
</svg>
